<svg id="Layer_1" data-name="Layer 1" xmlns="http://www.w3.org/2000/svg" viewBox="0 0 1185.41 753.29"><defs><style>.cls-1{fill:none;stroke:#360e70;stroke-linecap:round;stroke-linejoin:round;stroke-width:3px;}.cls-2{fill:#360e70;}</style></defs><title>backgroundPattern</title><polyline class="cls-1" points="38.68 858.68 38.68 454.87 68.51 425.03 68.51 -96.84"/><polyline class="cls-1" points="25.68 821.72 25.68 417.9 55.51 388.07 55.51 -133.8"/><polyline class="cls-1" points="56.43 462.73 56.43 888.6 26.59 918.43 26.59 1440.3"/><path class="cls-2" d="M52.71,462.91a3.72,3.72,0,1,1,3.72,3.72A3.73,3.73,0,0,1,52.71,462.91Z"/><polyline class="cls-1" points="71.35 495.16 71.35 921.03 41.51 950.87 41.51 1472.73"/><path class="cls-2" d="M67.63,495.34a3.72,3.72,0,1,1,3.72,3.73A3.73,3.73,0,0,1,67.63,495.34Z"/><polyline class="cls-1" points="83.25 -239.65 83.25 186.22 90.71 216.06 90.71 737.93"/><path class="cls-2" d="M87,737.74A3.73,3.73,0,1,0,90.71,734,3.72,3.72,0,0,0,87,737.74Z"/><polyline class="cls-1" points="11.95 -328.17 11.95 75.64 41.78 105.48 41.78 377.38"/><path class="cls-2" d="M38.06,377.2a3.73,3.73,0,1,0,3.72-3.73A3.73,3.73,0,0,0,38.06,377.2Z"/><polyline class="cls-1" points="28.38 -642.31 28.38 -238.49 40.68 -208.66 40.68 63.25"/><path class="cls-2" d="M37,63.06a3.73,3.73,0,1,0,3.73-3.72A3.72,3.72,0,0,0,37,63.06Z"/><polyline class="cls-1" points="-14.92 -301.78 -14.92 102.04 23.18 140.13"/><path class="cls-2" d="M20.41,142.63a3.72,3.72,0,1,0,0-5.26A3.72,3.72,0,0,0,20.41,142.63Z"/><polyline class="cls-1" points="-14.92 -237.13 -14.92 166.68 23.18 204.78"/><path class="cls-2" d="M20.41,207.28a3.73,3.73,0,1,0,0-5.27A3.74,3.74,0,0,0,20.41,207.28Z"/><polyline class="cls-1" points="-14.92 -177.89 -14.92 225.92 23.18 264.02"/><path class="cls-2" d="M20.41,266.52a3.73,3.73,0,1,0,0-5.27A3.74,3.74,0,0,0,20.41,266.52Z"/><polyline class="cls-1" points="-14.92 -64.49 -14.92 339.32 23.18 377.42"/><path class="cls-2" d="M20.41,379.92a3.73,3.73,0,1,0,0-5.27A3.74,3.74,0,0,0,20.41,379.92Z"/></svg>