<svg id="Layer_1" data-name="Layer 1" xmlns="http://www.w3.org/2000/svg" viewBox="0 0 124.31 2230.61"><defs><style>.cls-1{fill:none;stroke:#360e70;stroke-linecap:round;stroke-linejoin:round;stroke-width:3px;}.cls-2{fill:#360e70;}</style></defs><title>backgroundPattern-02-01</title><polyline class="cls-1" points="56.85 1558.75 56.85 1154.93 86.69 1125.1 86.69 122.58"/><path class="cls-2" d="M60.58,1558.56a3.73,3.73,0,1,1-3.73-3.72A3.72,3.72,0,0,1,60.58,1558.56Z"/><path class="cls-2" d="M90.41,122.76a3.72,3.72,0,1,0-3.72,3.72A3.72,3.72,0,0,0,90.41,122.76Z"/><polyline class="cls-1" points="43.85 1418.64 43.85 1117.97 73.69 1088.13 73.69 566.27"/><circle class="cls-2" cx="43.85" cy="1418.45" r="3.72"/><path class="cls-2" d="M77.41,566.45a3.72,3.72,0,1,0-3.72,3.72A3.72,3.72,0,0,0,77.41,566.45Z"/><polyline class="cls-1" points="74.61 1162.79 74.61 1588.66 44.77 1618.5 44.77 2140.37"/><path class="cls-2" d="M70.89,1163a3.72,3.72,0,1,1,3.72,3.72A3.72,3.72,0,0,1,70.89,1163Z"/><path class="cls-2" d="M41.05,2140.18a3.73,3.73,0,1,0,3.72-3.72A3.73,3.73,0,0,0,41.05,2140.18Z"/><polyline class="cls-1" points="89.53 1293.39 89.53 1621.1 59.69 1650.93 59.69 2172.8"/><path class="cls-2" d="M85.81,1293.57a3.72,3.72,0,1,1,3.72,3.73A3.72,3.72,0,0,1,85.81,1293.57Z"/><circle class="cls-2" cx="59.69" cy="2172.62" r="3.72"/><polyline class="cls-1" points="97.42 460.42 97.42 886.29 104.89 916.13 104.89 1803.94"/><path class="cls-2" d="M93.7,460.61a3.73,3.73,0,1,1,3.73,3.72A3.73,3.73,0,0,1,93.7,460.61Z"/><circle class="cls-2" cx="104.88" cy="1803.75" r="3.72"/><polyline class="cls-1" points="30.13 371.89 30.13 775.71 59.96 805.55 59.96 1077.45"/><path class="cls-2" d="M26.4,372.08a3.73,3.73,0,1,1,3.72,3.72A3.72,3.72,0,0,1,26.4,372.08Z"/><path class="cls-2" d="M56.24,1077.26a3.72,3.72,0,1,0,3.72-3.72A3.73,3.73,0,0,0,56.24,1077.26Z"/><polyline class="cls-1" points="46.56 57.76 46.56 461.57 58.85 491.41 58.85 721.14"/><path class="cls-2" d="M42.83,58a3.73,3.73,0,1,1,3.73,3.72A3.73,3.73,0,0,1,42.83,58Z"/><path class="cls-2" d="M55.13,721a3.73,3.73,0,1,0,3.72-3.72A3.72,3.72,0,0,0,55.13,721Z"/><polyline class="cls-1" points="18.6 414.84 18.6 818.65 39.15 839.2"/><path class="cls-2" d="M14.88,415a3.72,3.72,0,1,1,3.72,3.73A3.73,3.73,0,0,1,14.88,415Z"/><path class="cls-2" d="M36.38,841.7a3.72,3.72,0,1,0,0-5.26A3.74,3.74,0,0,0,36.38,841.7Z"/><polyline class="cls-1" points="18.6 414.84 18.6 883.3 39.15 903.84"/><path class="cls-2" d="M14.88,415a3.72,3.72,0,1,1,3.72,3.73A3.73,3.73,0,0,1,14.88,415Z"/><path class="cls-2" d="M36.38,906.34a3.72,3.72,0,1,0,0-5.26A3.72,3.72,0,0,0,36.38,906.34Z"/><polyline class="cls-1" points="18.6 414.84 18.6 942.54 39.15 963.08"/><path class="cls-2" d="M14.88,415a3.72,3.72,0,1,1,3.72,3.73A3.73,3.73,0,0,1,14.88,415Z"/><path class="cls-2" d="M36.38,965.58a3.72,3.72,0,1,0,0-5.26A3.72,3.72,0,0,0,36.38,965.58Z"/><polyline class="cls-1" points="18.6 414.84 18.6 1055.94 39.15 1076.49"/><path class="cls-2" d="M14.88,415a3.72,3.72,0,1,1,3.72,3.73A3.73,3.73,0,0,1,14.88,415Z"/><path class="cls-2" d="M36.38,1079a3.73,3.73,0,1,0,0-5.27A3.74,3.74,0,0,0,36.38,1079Z"/></svg>