<svg xmlns="http://www.w3.org/2000/svg" width="500px" height="500px" viewBox="0 0 880.94 685.58"><defs><style>.cls-1{fill:#553487;}.cls-2{fill:#97b6d6;}.cls-3,.cls-4,.cls-5{fill:none;stroke:#000;}.cls-3{stroke-miterlimit:10;stroke-width:12px;}.cls-4,.cls-5{stroke-linecap:round;stroke-linejoin:round;}.cls-4{stroke-width:25px;}.cls-5{stroke-width:22px;}</style></defs><title>Asset 3</title><g id="Layer_2" data-name="Layer 2"><g id="Layer_3" data-name="Layer 3"><path class="cls-1" d="M294.86,562.72,508,520.92a44.4,44.4,0,0,0,35.77-40.8l23.52-376.26a44.41,44.41,0,0,0-19.56-39.63l-48.51-32.6A171.08,171.08,0,0,0,379,4.38L172,34.81a68.4,68.4,0,0,0-58.45,67.67V429.17a44.42,44.42,0,0,0,13.74,32.11l79.12,75.58A100.13,100.13,0,0,0,294.86,562.72Z" transform="translate(0 0)"/><path d="M294.13,559c35.9-7.23,71.67-15.11,107.48-22.83,17.89-3.88,35.8-7.71,53.74-11.38l26.91-5.51,13.46-2.73,6.73-1.36,3.36-.68.84-.18.72-.17,1.42-.36a37.65,37.65,0,0,0,28.06-33.29l3.66-54.66,3.85-54.8,3.93-54.79,8.19-109.57,4.11-54.78,2-27.39,1-13.7.49-6.85c.05-1.1.1-2.13.12-3.2s0-2.13-.13-3.18a42,42,0,0,0-2.89-12.38,42.63,42.63,0,0,0-6.56-10.93c-.67-.83-1.43-1.59-2.14-2.39s-1.52-1.51-2.33-2.2-1.61-1.42-2.5-2l-1.29-1-1.4-1L533.58,58,510.89,42.5l-11.35-7.73c-1.9-1.31-3.8-2.48-5.69-3.72-1-.6-1.89-1.23-2.86-1.81l-2.92-1.7a163.66,163.66,0,0,0-24.4-11.7,173.07,173.07,0,0,0-26-7.45A160.85,160.85,0,0,0,410.8,5.24a171.21,171.21,0,0,0-27,1.3c-4.44.56-9,1.34-13.51,2.06l-13.56,2.18c-9,1.51-18.07,3-27.09,4.54l-54.15,9.34c-18.05,3.13-36.1,6.22-54.18,9.13l-27.12,4.37-13.56,2.16-6.78,1.09-.85.13-.76.16-1.51.32-3,.63a61.26,61.26,0,0,0-22.07,10.57A63.22,63.22,0,0,0,129.4,71.41a61.54,61.54,0,0,0-7.81,23L121.38,96a11,11,0,0,0-.15,1.52l-.14,3.06c-.15,1.93-.09,4.38-.11,6.63l0,13.73q0,27.47-.28,54.93l-.15,13.74-.22,13.73-.44,27.47c-.3,18.31-.68,36.62-.92,54.93s-.42,36.62-.55,54.93l-.19,27.46-.12,27.47L118,423v5.15c0,.57,0,1.15,0,1.64a39.61,39.61,0,0,0,.56,6.15,40.54,40.54,0,0,0,3.91,11.69,39,39,0,0,0,3.26,5.26,37.49,37.49,0,0,0,4,4.69l9.83,9.47,19.8,19,39.52,38.16,9.87,9.54c1.64,1.51,3.25,3,4.9,4.45l2.58,2.06c.86.69,1.71,1.4,2.62,2a98,98,0,0,0,23.2,12.52A95.6,95.6,0,0,0,294.13,559Zm1.47,7.5a105.89,105.89,0,0,1-28.37,1.44,104.17,104.17,0,0,1-27.72-6.13,105.7,105.7,0,0,1-25.06-13.35c-1-.66-1.9-1.42-2.84-2.15l-2.8-2.21c-1.79-1.53-3.58-3.14-5.32-4.71l-10-9.43L153.58,492.2l-19.92-18.9-5-4.73-2.49-2.37L124.94,465l-.62-.59-.66-.66a47.63,47.63,0,0,1-4.94-5.69,46.39,46.39,0,0,1-4-6.38A48.74,48.74,0,0,1,109.16,430c0-.65,0-1.22,0-1.78V423L109,395.56l-.11-27.47-.19-27.46q-.2-27.47-.55-54.93c-.24-18.31-.62-36.62-.92-54.93l-.44-27.47-.22-13.73-.15-13.74q-.28-27.47-.28-54.93l0-13.73c0-2.33-.06-4.45.09-7.1l.17-3.8a15.12,15.12,0,0,1,.19-1.89l.26-1.88a76.61,76.61,0,0,1,9.92-28.56,75.68,75.68,0,0,1,47.77-34.68l3.71-.69,1.86-.33.92-.16.85-.12,6.81-.91,13.61-1.83,27.23-3.63c18.15-2.41,36.33-4.65,54.51-6.85L328.6,8.09c9.09-1.09,18.17-2.3,27.25-3.45l13.61-1.81c4.55-.6,9-1.26,13.7-1.73A177.48,177.48,0,0,1,411,.19,181.6,181.6,0,0,1,438.6,3.76a177,177,0,0,1,26.71,7.74,180.45,180.45,0,0,1,25.15,11.88l3,1.73c1,.59,2,1.23,2.95,1.84,1.94,1.25,3.95,2.47,5.83,3.75l11.45,7.59,22.9,15.17L548.07,61l1.44,1L551,63c1,.68,1.93,1.49,2.89,2.25s1.8,1.64,2.7,2.46,1.71,1.74,2.49,2.68A47.22,47.22,0,0,1,570.43,97c.15,1.22.14,2.45.21,3.67s0,2.48-.07,3.67l-.36,6.85-.73,13.72L568,152.35l-2.74,54.86L559.78,317l-2.93,54.85-3,54.85-1.56,27.42-.83,13.71-.42,6.86-.21,3.42-.1,1.72-.06.87-.09,1A50.36,50.36,0,0,1,546.89,497a51.71,51.71,0,0,1-8.28,13.45,51.16,51.16,0,0,1-26.48,16.46l-1.92.45-1,.21-.84.16-3.37.64-6.75,1.28L484.8,532.2l-27,5.07c-18,3.37-36,6.58-54.06,9.75C367.67,553.39,331.57,559.61,295.6,566.47Z" transform="translate(0 0)"/><path d="M269.41,658.72c2.55-18.74,8-85.57,8.26-90.88.47-8.1-15.24-3.25-15.24-3.25L239.74,558,244,559.2s9.35,35.88,5.44,101.72c0,0-6.58-1.3-22.58-.86s-38.38-7-62.59-9.57-39,8.27-38.16,15.62,11.24,13,40.21,13.41c23.66.35,78.8-6.22,98.25-8.64a6,6,0,0,0,5.21-6.65C269.45,661.43,269.41,658.72,269.41,658.72Z" transform="translate(0 0)"/><polygon points="447.91 533.25 447.91 533.25 452.17 532 447.91 533.25"/><path d="M507.91,657.4c-24.16-3.09-26.64-1.07-42.1-5.19s-22.17-4.39-22.17-4.39c-3.91-65.84,4.27-114.57,4.27-114.57l-18.43,5.4s-15.7-4.85-15.24,3.24c.32,5.68,9.95,90.08,10.49,99.16a64.61,64.61,0,0,1-2,9,3.92,3.92,0,0,0,2.42,4.93c15.87,5.61,49,21.87,73.06,27.23,28.29,6.29,39.69,3.22,42.23-3.73S532.07,660.48,507.91,657.4Z" transform="translate(0 0)"/><path d="M684.47,430.05c-7.46,0-17.39,6.38-29.81,4.52,0,0,6.36-1.4,7.45-1.81,6.59-2.49,12.64-6.22,21.72-13.14,9.49-7.22,9-19.51,5.73-22.75s-7.41-3.73-12.59-.25c-4.46,3-7.81,11.14-14.3,18.92s-13.65,7.7-13.65,7.7,9.79-15.11,6-30.7c-3.46-14.05-17.84-16-18.16-2.38-.11,4.41.65,13.94.65,22.27s-11.79,16.33-16.33,17.95-9.4-4.86-10.7-13.62c-.83-5.6,3.89-10.06,4.54-15.57s-5.49-10.7-9.08-10.7c-7,0-18.49,9.4-11.35,27.24s22.38,19.19,22.38,19.19-8.4,17.73-29,18.92c-14.92.86-33.46-17.62-35.62-33.84l-6.51,50.12s24,9.67,44.73,7.47,45.84-31.7,45.84-31.7,25.51,2.08,36.21.78,21.22-2.72,22.52-9.86S691.93,430.05,684.47,430.05Z" transform="translate(0 0)"/><path d="M8.66,504.34c7.3,1.21,11.66,7.85,27.25,6.56,0,0-3.35-1.14-7.72-2.84a69.12,69.12,0,0,1-16.46-9.27c-9.57-8-12.86-12.55-11.4-22.12.91-5.93,9-8.46,14.64-5.78,4.85,2.31,2.55,13.15,10.11,19.89s14.74,8.08,14.74,8.08-11-19-9.51-35c1.35-14.41,15.28-18.46,17.61-5,.76,4.34,1.41,13.88,2.64,22.12s8.17,17.89,12.9,18.82,7.66-4.2,7.65-13.05c0-5.67-2.33-9.37-3.79-14.73s.86-11.4,4.41-11.92c6.9-1,19.67,6.58,15.24,25.27s-13.38,22.28-13.38,22.28,13.58,4.33,34,1.7c18.46-2.39,28.27-19.85,32.25-35.72l30.43,28.85s-38.56,30.79-73.16,30.76c-20.87,0-51.89-13.49-51.89-13.49s-13.32,2-24.09,2.25-18.86-5-19.9-7.15C-1.88,508.31,1.3,503.13,8.66,504.34Z" transform="translate(0 0)"/></g><g id="Layer_5" data-name="Layer 5"><path class="cls-2" d="M495.86,404.31,299.27,441.26a41.05,41.05,0,0,1-48.63-40.12L249.44,181a41.05,41.05,0,0,1,34.37-40.72l214.45-35.37a41.05,41.05,0,0,1,47.62,43.62L529.2,367.09A41,41,0,0,1,495.86,404.31Z" transform="translate(0 0)"/><path d="M496,404.8q-34.23,6.46-68.3,13.72l-17,3.63-17,3.71-34,7.42c-11.35,2.46-22.69,5-34.06,7.34l-17.05,3.58-8.56,1.72a45.48,45.48,0,0,1-28.49-3.66,46.49,46.49,0,0,1-15.29-11.95A46,46,0,0,1,247,413.07a47.4,47.4,0,0,1-1.6-9.67l-.08-2.42,0-2.18,0-4.35-.19-34.83C245,348,245,336.4,245,324.79l.12-69.67c.06-23.22.12-46.44.34-69.66l0-4.35c.1-1.58.11-3.18.3-4.75l.35-2.36c.06-.39.1-.79.18-1.18l.27-1.16.56-2.31c.2-.76.49-1.51.73-2.26a45,45,0,0,1,4-8.6c.41-.67.87-1.32,1.3-2s.85-1.33,1.36-1.92a40.64,40.64,0,0,1,3.06-3.6,43.32,43.32,0,0,1,15.32-10.61,36.76,36.76,0,0,1,4.42-1.55c.74-.21,1.49-.44,2.24-.63l2.29-.45c1.57-.32,3-.48,4.4-.7l4.31-.63c46-6.63,91.88-13.68,137.64-21.57q17.16-3,34.3-6.09l34.25-6.37,1.07-.2L499,102c.76-.12,1.52-.25,2.3-.31a45,45,0,0,1,4.65-.26,42.15,42.15,0,0,1,9.29,1,44.53,44.53,0,0,1,29.42,21.92,43.54,43.54,0,0,1,5.44,18.2,64.14,64.14,0,0,1-.16,9.27l-.57,8.69c-.36,5.8-.8,11.59-1.23,17.38-.85,11.57-1.69,23.15-2.67,34.72L544,230l-1.63,17.34c-1,11.56-2.27,23.11-3.43,34.67l-3.64,34.65L533.43,334l-1.73,17.33-.87,8.67-.41,4.33c-.14,1.45-.25,2.88-.47,4.36a44.65,44.65,0,0,1-2,8.64,43,43,0,0,1-3.82,8,42.11,42.11,0,0,1-12,12.77A42.7,42.7,0,0,1,496,404.8Zm-.19-1a41.21,41.21,0,0,0,15.72-6.66A39.88,39.88,0,0,0,523,384.58a41.21,41.21,0,0,0,3.49-7.79l.57-2.05.29-1,.2-1,.39-2.09c.1-.71.15-1.42.22-2.12.48-5.72.7-11.57,1-17.35l.91-17.4.83-17.4,1.66-34.81c.61-11.6,1.14-23.2,1.87-34.79l1-17.38,1.17-17.38c.79-11.58,1.71-23.16,2.62-34.73.46-5.79.9-11.58,1.43-17.36l.76-8.67a55.92,55.92,0,0,0,.34-8.12,37,37,0,0,0-4-15.06,38.23,38.23,0,0,0-9.91-12.22,37.69,37.69,0,0,0-14.14-7.22,36.14,36.14,0,0,0-7.95-1.21c-1.34,0-2.69,0-4,0-.68,0-1.35.11-2,.18l-1,.11-1.07.16-34.48,5c-11.49,1.72-23,3.44-34.44,5.24-45.88,7.22-91.61,15.29-137.28,23.77l-4.28.8c-1.42.27-2.91.5-4.18.83l-2,.46c-.64.19-1.28.42-1.92.63a31.54,31.54,0,0,0-3.74,1.47,37.26,37.26,0,0,0-12.73,9.56,35.8,35.8,0,0,0-2.46,3.14,17,17,0,0,0-1.08,1.67c-.34.56-.7,1.12-1,1.69a38.57,38.57,0,0,0-3,7.32c-.18.63-.4,1.25-.55,1.89l-.4,1.94-.2,1c-.06.33-.08.66-.12,1l-.22,2c-.12,1.31-.08,2.62-.14,3.94l.09,4.36c.47,23.21.78,46.43,1.09,69.65l.88,69.66c.16,11.61.23,23.22.3,34.83l.19,34.83v6.53l0,1.93a35.67,35.67,0,0,0,8,20.92,36.69,36.69,0,0,0,26.53,13.37,36,36,0,0,0,7.68-.46l8.55-1.49,17.18-2.85c11.45-1.94,22.93-3.7,34.4-5.53l34.42-5.44L410,418.65l17.19-2.81C450.06,412.06,472.94,408.1,495.76,403.82Z" transform="translate(0 0)"/><path class="cls-2" d="M505.09,493.65l-14.51,3.07a6.68,6.68,0,0,1-8.07-6.54V476a6.7,6.7,0,0,1,5.3-6.55l14.51-3.06a6.69,6.69,0,0,1,8.08,6.54v14.22A6.69,6.69,0,0,1,505.09,493.65Z" transform="translate(0 0)"/></g><g id="Layer_4" data-name="Layer 4"><path d="M389.42,242.23a90,90,0,0,1-1.8,36.28,91.22,91.22,0,0,1-15.91,32.58,95.32,95.32,0,0,1-27.07,24,98.59,98.59,0,0,1-70.26,11.68,95.92,95.92,0,0,1-33.58-14.06,91.25,91.25,0,0,1-25.83-26,89,89,0,0,1-11.57-71.05,92.39,92.39,0,0,1,16.32-32.86,95.32,95.32,0,0,1,27.47-24,98.72,98.72,0,0,1,70.58-11,95.41,95.41,0,0,1,33.35,14.37,91.34,91.34,0,0,1,25.4,26A87.89,87.89,0,0,1,389.42,242.23Zm-15.52,2.5A72,72,0,0,0,363,217a75.11,75.11,0,0,0-21.13-21.09,79,79,0,0,0-27.64-11.5,81.64,81.64,0,0,0-58.06,9.72,79.26,79.26,0,0,0-22.29,19.68,74.32,74.32,0,0,0-13.06,26.5,71.24,71.24,0,0,0,9.06,56.8,75.23,75.23,0,0,0,20.7,21.15,78.59,78.59,0,0,0,27.4,11.8A81.87,81.87,0,0,0,336.35,321a79.37,79.37,0,0,0,22.7-19.69,75.44,75.44,0,0,0,13.46-26.77A70.29,70.29,0,0,0,373.9,244.73Z" transform="translate(0 0)"/><path class="cls-3" d="M385.78,257.16c-1.89-11.72,8.83-23.87,21.5-25.92s25.48,6.8,27.37,18.52" transform="translate(0 0)"/><path d="M611,216.17a87.48,87.48,0,0,1-8.05,51.64,89.63,89.63,0,0,1-9.2,15,92.39,92.39,0,0,1-26,23.48,94.12,94.12,0,0,1-32.9,12.19,95.16,95.16,0,0,1-35.2-.62A92.52,92.52,0,0,1,467,304.18a89.79,89.79,0,0,1-25.09-25.29,87.26,87.26,0,0,1-11.65-69.25,90.65,90.65,0,0,1,15.63-32.33,93.17,93.17,0,0,1,26.78-23.79,94.21,94.21,0,0,1,33.65-11.92,95.46,95.46,0,0,1,35.57,1.34,92.74,92.74,0,0,1,32.4,14.48,90.23,90.23,0,0,1,24.41,25.64A86.69,86.69,0,0,1,611,216.17Zm-12.08,2a74,74,0,0,0-11.1-28.06,75.12,75.12,0,0,0-21.3-21.29,80.09,80.09,0,0,0-57.73-12,82,82,0,0,0-28,10.38A78.72,78.72,0,0,0,458.6,187a74.64,74.64,0,0,0-13,26.59,73.47,73.47,0,0,0,8.77,57.33A75.49,75.49,0,0,0,475,292.54a79.1,79.1,0,0,0,27.52,12.3A80.78,80.78,0,0,0,532.82,306a81.81,81.81,0,0,0,28.75-10.11,79.32,79.32,0,0,0,22.95-20.1,77.35,77.35,0,0,0,8.08-13,73.42,73.42,0,0,0,6.29-44.66Z" transform="translate(0 0)"/><path d="M437.61,332.51a21.66,21.66,0,0,1-.57,8.85,23.31,23.31,0,0,1-3.86,7.89,23.76,23.76,0,0,1-31.88,5.67,23,23,0,0,1-6.49-6.4,22.26,22.26,0,0,1-3.14-17.84,23.53,23.53,0,0,1,4-8.36,23.58,23.58,0,0,1,15.55-9.1,24.5,24.5,0,0,1,9.07.46,23.44,23.44,0,0,1,8.19,3.81,23.13,23.13,0,0,1,6.11,6.59A21.89,21.89,0,0,1,437.61,332.51Zm-6.79,1.09a14.72,14.72,0,0,0-6.71-9.72,16.2,16.2,0,0,0-21.27,3.89,14.45,14.45,0,0,0,3,20.6A16.19,16.19,0,0,0,428,345.32a14.18,14.18,0,0,0,2.7-5.59A15.08,15.08,0,0,0,430.82,333.6Z" transform="translate(0 0)"/><path d="M131.83,240.73a52.41,52.41,0,0,1,1.38-13.6,25.89,25.89,0,0,1,3.16-7.51,18,18,0,0,1,7.3-6.58,19,19,0,0,1,9.45-1.71,28.26,28.26,0,0,1,7.85,1.72c1.18.43,2.31.91,3.39,1.42.52.24,1.11.57,1.66.85s1,.54,1.45.81l2.66,1.53,2.59,1.53c6.85,4.07,13.57,8.17,20.31,12.3l20.15,12.41a8.64,8.64,0,1,1-9.06,14.72l-.24-.15-.07-.05L184.2,245.34c-6.55-4.34-13.11-8.68-19.66-12.9l-2.44-1.56-2.4-1.5c-.38-.23-.84-.53-1.11-.67s-.58-.36-.94-.54c-.69-.36-1.36-.67-2-.94a13.92,13.92,0,0,0-3.6-1,4.43,4.43,0,0,0-2.08.16,3,3,0,0,0-1.38,1.2,11.52,11.52,0,0,0-1.48,3.3,38.48,38.48,0,0,0-1.25,9.81v.07a7,7,0,0,1-14-.07Z" transform="translate(0 0)"/><polyline class="cls-4" points="288.32 299.43 342.59 257.01 289.32 218.75"/><polyline class="cls-5" points="511.13 274.81 462.55 238.21 510.35 194.13"/><ellipse class="cls-2" cx="739.63" cy="104.38" rx="135.24" ry="91.76"/><path d="M880.94,104.38a71.85,71.85,0,0,1-4.41,24.06,80.35,80.35,0,0,1-11.86,21,109.68,109.68,0,0,1-16.55,17,136.94,136.94,0,0,1-19.32,13.3,169,169,0,0,1-43.24,16.91,201.61,201.61,0,0,1-45.94,5.7,201.51,201.51,0,0,1-46.12-4.88,167.84,167.84,0,0,1-43.81-16.38c-13.77-7.62-26.6-17.63-36.57-30.56A81.83,81.83,0,0,1,601,129.05a72.79,72.79,0,0,1-4.6-24.67,74.12,74.12,0,0,1,4.28-24.8A81.11,81.11,0,0,1,612.6,57.81a103.74,103.74,0,0,1,16.84-17.54,126.68,126.68,0,0,1,19.79-13.46A149.24,149.24,0,0,1,670.76,17a169.59,169.59,0,0,1,22.56-6.51,200.78,200.78,0,0,1,46.3-4.38,215.18,215.18,0,0,1,23.12,1.81c1.92.28,3.83.52,5.74.84l5.71,1,5.68,1.18c1.89.38,3.76.9,5.64,1.35a174.15,174.15,0,0,1,43.14,17c1.68,1,3.37,2,5,3s3.29,2.09,4.91,3.18,3.22,2.21,4.8,3.38,3.14,2.35,4.65,3.61a106,106,0,0,1,16.6,16.93c.6.8,1.24,1.57,1.81,2.39l1.7,2.49c1.18,1.62,2.14,3.41,3.19,5.12s1.89,3.58,2.82,5.38l1.2,2.8c.4.94.83,1.86,1.14,2.83A70.8,70.8,0,0,1,880.94,104.38Zm-12.15,0a61.36,61.36,0,0,0-3.46-20,70.3,70.3,0,0,0-9.74-18.25,91.07,91.07,0,0,0-14.47-15.45c-1.34-1.17-2.77-2.25-4.15-3.38s-2.89-2.13-4.34-3.19-3-2-4.5-3-3.1-1.85-4.64-2.77a149.15,149.15,0,0,0-40.57-15.18,182.59,182.59,0,0,0-43.3-4.1A189.18,189.18,0,0,0,696.75,25a180.92,180.92,0,0,0-20.42,6.64,151,151,0,0,0-19.19,9.19,121.23,121.23,0,0,0-17.25,12,92.3,92.3,0,0,0-14.22,14.85A68,68,0,0,0,616,85.12a58.05,58.05,0,0,0-3.61,19.26,59.27,59.27,0,0,0,3.29,19.37,66.91,66.91,0,0,0,9.52,17.76c8.11,11.05,19.23,20.15,31.52,27.25a154.77,154.77,0,0,0,39.91,15.75,188.51,188.51,0,0,0,43,5.38,188.74,188.74,0,0,0,43.25-4.56,153.39,153.39,0,0,0,40.47-15.23A110.22,110.22,0,0,0,841.05,158a87.12,87.12,0,0,0,14.51-15.37C863.91,131.36,868.79,118,868.79,104.38Z" transform="translate(0 0)"/><path d="M685.84,190.27c-.31.61-.55,1-.81,1.45l-.77,1.31-1.56,2.54c-1,1.67-2.09,3.32-3.16,5q-3.21,4.88-6.61,9.58a209.24,209.24,0,0,1-14.59,18.08,114.94,114.94,0,0,1-17.17,15.74,59.26,59.26,0,0,1-10,5.9,31.63,31.63,0,0,1-10.93,2.93,29.69,29.69,0,0,0,8.6-6.33,53.09,53.09,0,0,0,6.43-8.24,102.68,102.68,0,0,0,9.12-18.77,186.57,186.57,0,0,0,6.26-20q1.3-5.08,2.37-10.21c.35-1.7.69-3.4,1-5.09l.44-2.52.19-1.23c0-.38.13-.85.13-1.09Z" transform="translate(0 0)"/><path d="M642.47,125.45l11.23-59.7,15-1.6-10.56,58.94L687.36,120l1.48,14-45,4.75Zm24.25-22.93,13.89-1.47,4.91,46.42-13.89,1.47Z" transform="translate(0 0)"/><path d="M702.24,141.16q-5.65-4.75-6.68-14.42l-4.8-45.37q-1-9.66,3.51-15.5t13.79-6.81q9.26-1,14.92,3.78t6.67,14.42l4.8,45.37q1,9.66-3.51,15.5t-13.79,6.81Q707.9,145.92,702.24,141.16Zm17-12.36a6.86,6.86,0,0,0,.88-4.65l-4.8-45.38a6.88,6.88,0,0,0-1.84-4.36,5.13,5.13,0,0,0-7.46.78,6.84,6.84,0,0,0-.89,4.66l4.8,45.37a6.88,6.88,0,0,0,1.84,4.37,4.61,4.61,0,0,0,3.9,1.23A4.66,4.66,0,0,0,719.22,128.8Z" transform="translate(0 0)"/><path d="M742.87,114.83l11.24-59.71,15-1.59L758.6,112.47l29.17-3.09,1.48,14-45,4.76ZM767.13,91.9,781,90.43l4.91,46.41L772,138.31Z" transform="translate(0 0)"/><path d="M812.38,48.9l14.35-1.52,6.58,62.21L819,111.11Zm7.39,69.79,14.35-1.52,1.52,14.36L821.28,133Z" transform="translate(0 0)"/></g></g></svg>