<?xml version="1.0" encoding="utf-8"?>
<!-- Generator: Adobe Illustrator 23.0.1, SVG Export Plug-In . SVG Version: 6.00 Build 0)  -->
<svg version="1.1" xmlns="http://www.w3.org/2000/svg" xmlns:xlink="http://www.w3.org/1999/xlink" x="0px" y="0px"
	 viewBox="0 0 108.73 1030.38" style="enable-background:new 0 0 108.73 1030.38;" xml:space="preserve">
<style type="text/css">
	.st0{display:none;}
	.st1{display:inline;fill:#553487;}
	.st2{fill:none;stroke:#360E70;stroke-width:3;stroke-linecap:round;stroke-linejoin:round;}
	.st3{fill:#360E70;}
</style>
<g id="Layer_2" class="st0">
	<rect y="154.54" class="st1" width="1185.41" height="753.29"/>
</g>
<g id="Layer_1">
	<g>
		<g>
			<polyline class="st2" points="38.68,1013.22 38.68,609.41 68.51,579.57 68.51,57.7 			"/>
			<g>
				<path class="st3" d="M42.4,1013.03c0,2.06-1.67,3.72-3.72,3.72s-3.72-1.67-3.72-3.72c0-2.06,1.67-3.72,3.72-3.72
					S42.4,1010.98,42.4,1013.03z"/>
			</g>
			<g>
				<path class="st3" d="M72.24,57.88c0-2.06-1.67-3.72-3.72-3.72c-2.06,0-3.72,1.67-3.72,3.72c0,2.06,1.67,3.72,3.72,3.72
					C70.57,61.61,72.24,59.94,72.24,57.88z"/>
			</g>
		</g>
	</g>
	<g>
		<g>
			<polyline class="st2" points="25.68,976.26 25.68,572.45 55.51,542.61 55.51,20.74 			"/>
			<g>
				<path class="st3" d="M29.4,976.08c0,2.06-1.67,3.72-3.72,3.72s-3.72-1.67-3.72-3.72c0-2.06,1.67-3.72,3.72-3.72
					S29.4,974.02,29.4,976.08z"/>
			</g>
			<g>
				<path class="st3" d="M59.24,20.92c0-2.06-1.67-3.72-3.72-3.72s-3.72,1.67-3.72,3.72c0,2.06,1.67,3.72,3.72,3.72
					S59.24,22.98,59.24,20.92z"/>
			</g>
		</g>
	</g>
	<g>
		<g>
			<polyline class="st2" points="56.43,617.27 56.43,1043.14 26.59,1072.97 26.59,1594.84 			"/>
			<g>
				<path class="st3" d="M52.71,617.45c0-2.06,1.67-3.72,3.72-3.72s3.72,1.67,3.72,3.72s-1.67,3.72-3.72,3.72
					S52.71,619.51,52.71,617.45z"/>
			</g>
		</g>
	</g>
	<g>
		<g>
			<polyline class="st2" points="71.35,649.7 71.35,1075.57 41.51,1105.41 41.51,1627.27 			"/>
			<g>
				<path class="st3" d="M67.63,649.88c0-2.06,1.67-3.72,3.72-3.72c2.06,0,3.72,1.67,3.72,3.72s-1.67,3.72-3.72,3.72
					C69.3,653.61,67.63,651.94,67.63,649.88z"/>
			</g>
		</g>
	</g>
	<g>
		<g>
			<polyline class="st2" points="83.25,-85.11 83.25,340.76 90.71,370.6 90.71,892.47 			"/>
			<g>
				<path class="st3" d="M86.98,892.28c0,2.06,1.67,3.72,3.72,3.72c2.06,0,3.72-1.67,3.72-3.72c0-2.06-1.67-3.72-3.72-3.72
					C88.65,888.56,86.98,890.23,86.98,892.28z"/>
			</g>
		</g>
	</g>
	<g>
		<g>
			<polyline class="st2" points="11.95,-173.63 11.95,230.18 41.78,260.02 41.78,531.92 			"/>
			<g>
				<path class="st3" d="M38.06,531.74c0,2.06,1.67,3.72,3.72,3.72s3.72-1.67,3.72-3.72c0-2.06-1.67-3.72-3.72-3.72
					S38.06,529.68,38.06,531.74z"/>
			</g>
		</g>
	</g>
	<g>
		<g>
			<polyline class="st2" points="28.38,-487.77 28.38,-83.95 40.68,-54.11 40.68,217.79 			"/>
			<g>
				<path class="st3" d="M36.95,217.6c0,2.06,1.67,3.72,3.72,3.72s3.72-1.67,3.72-3.72c0-2.06-1.67-3.72-3.72-3.72
					S36.95,215.55,36.95,217.6z"/>
			</g>
		</g>
	</g>
	<g>
		<g>
			<polyline class="st2" points="-14.92,-147.24 -14.92,256.58 23.18,294.67 			"/>
			<g>
				<path class="st3" d="M20.41,297.17c1.45,1.45,3.81,1.45,5.26,0c1.45-1.45,1.45-3.81,0-5.26c-1.45-1.45-3.81-1.45-5.26,0
					S18.96,295.72,20.41,297.17z"/>
			</g>
		</g>
	</g>
	<g>
		<g>
			<polyline class="st2" points="-14.92,-82.59 -14.92,321.22 23.18,359.32 			"/>
			<g>
				<path class="st3" d="M20.41,361.82c1.45,1.45,3.81,1.45,5.26,0c1.45-1.45,1.45-3.81,0-5.26c-1.45-1.45-3.81-1.45-5.26,0
					S18.96,360.36,20.41,361.82z"/>
			</g>
		</g>
	</g>
	<g>
		<g>
			<polyline class="st2" points="-14.92,-23.35 -14.92,380.46 23.18,418.56 			"/>
			<g>
				<path class="st3" d="M20.41,421.06c1.45,1.45,3.81,1.45,5.26,0c1.45-1.45,1.45-3.81,0-5.26c-1.45-1.45-3.81-1.45-5.26,0
					C18.96,417.25,18.96,419.6,20.41,421.06z"/>
			</g>
		</g>
	</g>
	<g>
		<g>
			<polyline class="st2" points="-14.92,90.05 -14.92,493.86 23.18,531.96 			"/>
			<g>
				<path class="st3" d="M20.41,534.46c1.45,1.45,3.81,1.45,5.26,0c1.45-1.45,1.45-3.81,0-5.26c-1.45-1.45-3.81-1.45-5.26,0
					C18.96,530.65,18.96,533.01,20.41,534.46z"/>
			</g>
		</g>
	</g>
</g>
</svg>
