<svg xmlns="http://www.w3.org/2000/svg" viewBox="0 0 1246.15 787.05"><defs><style>.cls-1,.cls-3{fill:#97b6d6;}.cls-2,.cls-4,.cls-5,.cls-6,.cls-7{fill:none;}.cls-2,.cls-3,.cls-4,.cls-5,.cls-6,.cls-7{stroke:#000;stroke-miterlimit:10;}.cls-2,.cls-3,.cls-5{stroke-width:45px;}.cls-4{stroke-width:30px;}.cls-5,.cls-6,.cls-7{stroke-linecap:round;}.cls-6{stroke-width:40px;}.cls-7{stroke-width:60px;}</style></defs><title>Asset 1</title><g id="Layer_2" data-name="Layer 2"><g id="Layer_8" data-name="Layer 8"><rect class="cls-1" x="255.51" y="22.5" width="742.05" height="742.05" rx="113.39"/><path class="cls-2" d="M997.57,592.81v58.36A113.39,113.39,0,0,1,884.18,764.55H368.9A113.39,113.39,0,0,1,255.51,651.17V600"/><path class="cls-2" d="M255.51,209.78V135.89A113.39,113.39,0,0,1,368.9,22.5H884.18A113.39,113.39,0,0,1,997.57,135.89V217"/><circle class="cls-3" cx="347.37" cy="404.88" r="215.6"/><path class="cls-4" d="M554,469.45c11.26-33.26,37.46-63.57,72.57-63.57s67.52,28.82,72.57,63.57"/><circle class="cls-3" cx="901.24" cy="404.88" r="211.14"/><polyline class="cls-5" points="498.76 628.99 498.76 682.53 749.78 682.53 749.78 628.99"/><path class="cls-6" d="M129.77,404.88H67a47,47,0,0,0-47,47h0"/><path class="cls-6" d="M1116.38,404.88h62.75a47,47,0,0,1,47,47h0"/><polyline class="cls-7" points="399.35 508.82 295.4 404.88 399.35 300.94"/><polyline class="cls-7" points="849.27 508.82 953.21 404.88 849.27 300.94"/></g></g></svg>